<?xml version="1.0" encoding="UTF-8"?>
<!DOCTYPE svg PUBLIC "-//W3C//DTD SVG 1.1//EN" "http://www.w3.org/Graphics/SVG/1.1/DTD/svg11.dtd">
<!-- Creator: CorelDRAW 2018 (64-Bit) -->
<svg xmlns="http://www.w3.org/2000/svg" xml:space="preserve" width="8.128mm" height="8.128mm" version="1.1" style="shape-rendering:geometricPrecision; text-rendering:geometricPrecision; image-rendering:optimizeQuality; fill-rule:evenodd; clip-rule:evenodd"
viewBox="0 0 812.8 812.8"
 xmlns:xlink="http://www.w3.org/1999/xlink">
 <defs>
  <style type="text/css">
   <![CDATA[
    .fil1 {fill:#388D3B}
    .fil2 {fill:#6C4B40}
    .fil5 {fill:#BBA9A4}
    .fil4 {fill:#C52727}
    .fil0 {fill:#F34335}
    .fil3 {fill:#FFD500}
   ]]>
  </style>
 </defs>
 <g id="Слой_x0020_1">
  <metadata id="CorelCorpID_0Corel-Layer"/>
  <g id="_1933212036832">
   <path class="fil0" d="M435.46 291.48l-0.03 93.14c-0.12,91.03 -12.17,155.04 27.05,227.74 39.44,23.63 190.59,9.37 252.34,9.42 11.57,-49.99 24.47,-29.93 25.8,-101.71l-0.24 -42.33 0.24 -160.86 0 -33.87 -0.46 -84.66 -93.08 0.02 -42.33 0.01 -42.33 -0.01 -42.33 0.01 -84.67 -0.04 0.04 93.14z"/>
   <path class="fil1" d="M139.1 621.67c53.62,0.18 107.24,0.08 160.86,0.08 28.26,0 56.52,-0.15 84.78,0.19 27.57,0.33 57,3.88 77.74,-9.58 -39.22,-72.7 -27.17,-136.71 -27.05,-227.74l-372.53 0 -33.87 -0.02c0,78.63 -2.28,91.24 25,144.34 19.21,37.41 47.22,61.06 80.42,88.91 0.93,0.79 3.13,2.51 4.65,3.82z"/>
   <path class="fil2" d="M139.1 621.67l-127 0c4.24,18.21 9.05,29.88 15.5,43.76 12.77,27.48 12.16,18.99 26.83,40.9l635.02 0.03c102.84,0.54 114.5,5.13 135.43,-84.69l-110.06 0.11c-61.75,-0.05 -212.9,14.21 -252.34,-9.42 -20.74,13.46 -50.17,9.91 -77.74,9.58 -28.26,-0.34 -56.52,-0.19 -84.78,-0.19 -53.62,0 -107.24,0.1 -160.86,-0.08z"/>
   <path class="fil3" d="M62.9 384.62l372.53 0 0.03 -93.14c-81.31,-6.76 -72.46,-24.32 -92.48,-35.42 -40.45,-22.43 -67.88,1.69 -76.89,35.42 -32.2,-15.45 -25.09,-6.78 -61.25,-5.16 -17.97,0.8 -34.75,-3.31 -65.74,-3.31l-36.66 48c-25.48,21.37 -35.89,9.68 -39.54,53.61z"/>
   <path class="fil4" d="M740.62 316.88c64.8,0 52.06,18.09 42.54,67.75 -8.33,43.48 -12.41,72.51 -42.78,93.11l0.24 42.33c49.85,-13.63 70.71,-64.65 81.1,-121.71 1.18,-6.46 2.23,-12.56 3.16,-18.32l0 -71.27c-9.42,-21.5 -34.7,-25.76 -84.26,-25.76l0 33.87z"/>
   <path class="fil5" d="M604.75 198.38l42.33 -0.01c-16.3,-35.32 2.74,-18.46 8.35,-60.09 5.36,-39.82 -9.6,-44.44 -16.81,-75.4l-33.54 9.5c1.86,25.22 13.67,45.83 13.23,58.15 -0.71,19.73 -13.56,19.99 -13.56,67.85z"/>
   <path class="fil5" d="M520.09 198.38l42.33 -0.01c-16.3,-35.32 2.74,-18.46 8.34,-60.09 5.36,-39.82 -9.59,-44.44 -16.81,-75.4l-33.53 9.5c1.85,25.22 13.67,45.83 13.23,58.15 -0.71,19.73 -13.56,19.99 -13.56,67.85z"/>
  </g>
 </g>
</svg>
